# xmcd
#
# Track frame offsets:
#	150
#	17970
#	34678
#	49070
#	64506
#	78706
#	94410
#	110373
#	125609
#	142972
#	158323
#	176149
#	188772
#	207808
#	225255
#	247458
#	267209
#
# Disc length: 3766 seconds
#
# Revision: 2
# Processed by: cddbd v1.5.2PL0 Copyright (c) Steve Scherf et al.
# Submitted via: audiograbber 1.83.01
#
DISCID=e60eb411
DTITLE=Various Artist - Promo Only Country Radio March 2007
DYEAR=2007
DGENRE=Country
TTITLE0=Tim McGraw - Last Dollar (Fly Away)
TTITLE1=Carrie Underwood - Wasted
TTITLE2=Jeff Carson - When You Said You Loved Me
TTITLE3=Rascal Flatts - Stand
TTITLE4=Eric Church - Guys Like Me
TTITLE5=Bucky Covington - A Different World
TTITLE6=Taylor Swift - Teardrops On My Guitar
TTITLE7=Povertyneck Hillbillies - One Night In New Orleans
TTITLE8=Dusty Drake - Say Yes
TTITLE9=Laura Bryna - I Don't Have A Thing To Wear (Radio Edit)
TTITLE10=Little Texas - Missing Years
TTITLE11=Elana James - Goodbye Liza Jane
TTITLE12=Holmes Brothers - (What's So Funny 'Bout) Peace, Love And Understandin
TTITLE12=g
TTITLE13=Rick Trevino - Separate Ways (Album Version)
TTITLE14=Rosanne Cash - The Unfaithful Servant
TTITLE15=Martha Scanlan - I Don't Even Have To Ask
TTITLE16=Beverly Mitchell - Heaven On Earth Down Here
EXTD=
EXTT0=
EXTT1=
EXTT2=
EXTT3=
EXTT4=
EXTT5=
EXTT6=
EXTT7=
EXTT8=
EXTT9=
EXTT10=
EXTT11=
EXTT12=
EXTT13=
EXTT14=
EXTT15=
EXTT16=
PLAYORDER=
